<svg width="143.801" height="75.201" viewBox="0 0 143.801 75.201" xmlns="http://www.w3.org/2000/svg"><g id="svgGroup" stroke-linecap="round" fill-rule="evenodd" font-size="9pt" stroke="#bfbcbc" stroke-width="0.25mm" fill="#bfbcbc" style="stroke:#bfbcbc;stroke-width:0.25mm;fill:#bfbcbc"><path d="M 42.601 42.2 L 44.601 42.3 A 3.473 3.473 0 0 1 45.185 42.382 Q 45.476 42.451 45.684 42.573 A 1.002 1.002 0 0 1 46.201 43.5 Q 46.112 43.766 45.748 43.796 A 1.182 1.182 0 0 1 45.651 43.8 A 2.843 2.843 0 0 1 45.344 43.782 Q 45.048 43.749 44.652 43.66 A 11.079 11.079 0 0 1 44.401 43.6 Q 43.863 43.466 43.1 43.422 A 13.901 13.901 0 0 0 42.301 43.4 Q 33.701 43.4 26.601 48.6 Q 27.067 49.611 27.171 51.074 A 12.385 12.385 0 0 1 27.201 51.95 A 5.068 5.068 0 0 1 26.635 54.233 Q 26.192 55.121 25.401 56 A 6.808 6.808 0 0 1 24.011 57.199 A 4.946 4.946 0 0 1 21.301 58 Q 19.064 58 19.002 56.487 A 2.137 2.137 0 0 1 19.001 56.4 A 5.122 5.122 0 0 1 19.575 54.163 Q 20.794 51.659 24.601 48.6 A 6.129 6.129 0 0 0 21.866 46.371 Q 19.67 45.4 16.201 45.4 A 16.89 16.89 0 0 0 12.015 45.891 A 11.897 11.897 0 0 0 6.251 49.2 A 12.949 12.949 0 0 0 2.601 58.377 A 16.753 16.753 0 0 0 2.601 58.55 A 13.373 13.373 0 0 0 6.061 67.548 A 17.832 17.832 0 0 0 6.851 68.4 Q 11.101 72.7 18.701 72.7 A 37.68 37.68 0 0 0 32.995 69.752 Q 37.943 67.736 42.974 64.341 A 70.497 70.497 0 0 0 45.301 62.7 A 219.141 219.141 0 0 0 47.447 61.106 Q 50.513 58.8 52.651 57 A 69.771 69.771 0 0 0 54.841 55.068 Q 56.92 53.163 59.451 50.6 A 877.2 877.2 0 0 0 61.246 48.777 Q 63.178 46.809 64.294 45.64 A 96.821 96.821 0 0 0 64.901 45 L 69.201 40.2 A 237.298 237.298 0 0 1 71.961 36.935 Q 73.2 35.496 74.585 33.925 A 442.435 442.435 0 0 1 77.501 30.65 Q 82.401 25.2 86.401 20.75 A 244.281 244.281 0 0 1 90.008 16.82 Q 91.725 14.991 93.303 13.4 A 144.777 144.777 0 0 1 93.751 12.95 Q 97.101 9.6 100.501 6.5 A 68.791 68.791 0 0 1 103.318 4.047 Q 107.405 0.697 109.785 0.12 A 3.907 3.907 0 0 1 110.701 0 A 1.578 1.578 0 0 1 111.035 0.032 Q 111.601 0.155 111.601 0.75 A 1.147 1.147 0 0 1 111.142 1.685 A 1.912 1.912 0 0 1 110.801 1.9 A 13.297 13.297 0 0 0 108.705 3.6 Q 105.639 6.569 101.545 13.024 A 120.883 120.883 0 0 0 101.151 13.65 A 453.235 453.235 0 0 0 96.517 21.232 Q 92.451 28.025 87.701 36.4 Q 80.835 48.505 75.928 55.55 A 103.827 103.827 0 0 1 74.901 57 A 9.519 9.519 0 0 0 75.686 56.386 Q 77.872 54.538 84.251 48.2 Q 92.101 40.4 101.001 31.75 A 248.533 248.533 0 0 1 111.788 21.892 A 314.217 314.217 0 0 1 121.251 14.05 Q 132.601 5 140.801 1.2 A 18.539 18.539 0 0 1 141.37 0.966 Q 142.165 0.657 142.567 0.609 A 1.141 1.141 0 0 1 142.701 0.6 Q 143.687 0.6 143.789 1.323 A 1.265 1.265 0 0 1 143.801 1.5 Q 143.801 1.854 143.253 2.129 A 2.743 2.743 0 0 1 143.101 2.2 Q 136.201 7 123.551 20.3 Q 110.901 33.6 100.251 48.15 A 140.641 140.641 0 0 0 96.101 54.111 Q 90.43 62.769 89.706 67.501 A 8.623 8.623 0 0 0 89.601 68.8 A 8.275 8.275 0 0 0 89.768 70.545 Q 90.318 73.084 92.679 73.442 A 5.494 5.494 0 0 0 93.501 73.5 Q 98.801 73.5 105.001 68.6 A 92.293 92.293 0 0 1 105.686 68.061 Q 107.951 66.3 108.301 66.3 A 2.115 2.115 0 0 1 108.653 66.327 Q 109.278 66.433 109.3 66.962 A 0.941 0.941 0 0 1 109.301 67 Q 109.301 67.3 109.001 67.6 Q 100.728 73.421 95.214 74.784 A 13.045 13.045 0 0 1 92.101 75.2 A 9.444 9.444 0 0 1 89.742 74.932 Q 86.001 73.964 86.001 69.5 A 10.307 10.307 0 0 1 86.385 66.902 Q 87.447 62.881 91.44 56.467 A 96.293 96.293 0 0 1 91.451 56.45 A 147.75 147.75 0 0 1 99.103 45.376 A 182.309 182.309 0 0 1 104.501 38.6 A 511.824 511.824 0 0 1 113.063 28.581 Q 125.176 14.8 132.901 8.5 L 135.101 6.5 L 136.101 5.6 A 40.038 40.038 0 0 0 132.223 7.793 Q 128.338 10.249 123.193 14.362 A 208.77 208.77 0 0 0 118.251 18.45 Q 106.801 28.2 94.701 40.1 Q 74.201 60.3 63.401 71.8 A 3.128 3.128 0 0 1 63.085 72.204 Q 62.899 72.402 62.706 72.521 A 1.143 1.143 0 0 1 62.101 72.7 Q 61.514 72.309 61.501 71.87 A 0.673 0.673 0 0 1 61.501 71.85 A 1.109 1.109 0 0 1 61.569 71.455 A 0.997 0.997 0 0 1 61.801 71.1 A 2.655 2.655 0 0 0 61.938 70.949 Q 62.288 70.538 63.101 69.4 Q 65.605 65.911 67.39 63.703 A 60.145 60.145 0 0 1 67.801 63.2 A 31.097 31.097 0 0 0 69.545 60.899 Q 73.293 55.564 81.583 41.459 A 1221.963 1221.963 0 0 0 85.351 35 A 792.193 792.193 0 0 1 90.226 26.695 Q 100.101 10.125 104.001 5.9 Q 95.685 12.552 83.29 26.742 A 429.371 429.371 0 0 0 78.101 32.8 A 264.464 264.464 0 0 1 65.566 46.77 Q 59.099 53.457 52.799 58.87 A 154.595 154.595 0 0 1 49.901 61.3 Q 43.001 67 34.551 70.75 A 43.783 43.783 0 0 1 24.093 73.962 A 37.911 37.911 0 0 1 17.751 74.5 A 24.925 24.925 0 0 1 12.441 73.968 Q 7.785 72.953 4.701 70 A 15.495 15.495 0 0 1 1.288 65.325 A 14.156 14.156 0 0 1 0.001 59.3 Q 0.001 53.1 4.651 48.55 A 15.794 15.794 0 0 1 15.157 44.034 A 20.931 20.931 0 0 1 16.351 44 A 22.171 22.171 0 0 1 19.69 44.233 Q 23.935 44.882 25.879 47.341 A 6.713 6.713 0 0 1 26.001 47.5 Q 33.501 42.2 42.601 42.2 Z M 65.001 20.5 L 65.001 21.4 L 68.801 18.1 Q 69.101 12.6 72.351 7.85 A 13.411 13.411 0 0 1 74.523 5.345 A 8.496 8.496 0 0 1 80.301 3.1 Q 81.623 3.1 81.78 4.616 A 4.237 4.237 0 0 1 81.801 5.05 Q 81.801 6.586 79.97 8.96 A 24.166 24.166 0 0 1 78.851 10.3 A 62.532 62.532 0 0 1 76.768 12.509 Q 74.383 14.928 70.989 17.965 A 200.572 200.572 0 0 1 70.501 18.4 L 70.501 18.9 Q 70.501 24.438 74.466 24.778 A 6.27 6.27 0 0 0 75.001 24.8 A 9.768 9.768 0 0 0 77.133 24.581 Q 78.637 24.244 79.748 23.393 A 6.055 6.055 0 0 0 80.101 23.1 Q 80.826 22.556 81.181 22.505 A 0.491 0.491 0 0 1 81.251 22.5 A 0.293 0.293 0 0 1 81.53 22.667 Q 81.601 22.803 81.601 23.05 Q 81.601 23.368 81.467 23.552 A 0.565 0.565 0 0 1 81.201 23.75 Q 80.801 23.9 80.251 24.35 Q 79.701 24.8 79.101 25.2 Q 77.937 26 76.032 26.218 A 13.49 13.49 0 0 1 74.501 26.3 A 6.058 6.058 0 0 1 72.008 25.822 Q 69.164 24.55 68.801 19.9 L 64.801 23.4 A 24.924 24.924 0 0 1 63.663 28.686 A 19.952 19.952 0 0 1 61.651 32.95 A 13.121 13.121 0 0 1 60.271 34.793 Q 58.263 37 55.901 37 A 3.023 3.023 0 0 1 55.07 36.896 Q 54.138 36.629 53.89 35.678 A 3.094 3.094 0 0 1 53.801 34.9 Q 53.801 31.798 60.78 25.206 A 97.994 97.994 0 0 1 63.201 23 Q 63.284 22.415 63.298 21.412 A 30.081 30.081 0 0 0 63.301 21 A 17.971 17.971 0 0 0 62.319 14.962 A 15.751 15.751 0 0 0 59.051 9.55 A 12.762 12.762 0 0 0 54.017 6.251 Q 51.938 5.47 49.35 5.141 A 32.119 32.119 0 0 0 45.301 4.9 Q 40.894 4.9 35.697 6.482 A 47.047 47.047 0 0 0 35.001 6.7 Q 24.201 10 16.301 19.3 A 11.717 11.717 0 0 0 15.626 20.038 A 14.992 14.992 0 0 0 15.101 20.7 Q 14.001 22.3 13.601 22.3 Q 12.919 21.911 12.901 21.426 A 0.709 0.709 0 0 1 12.901 21.4 Q 14.901 18.5 18.401 15.2 Q 21.901 11.9 25.651 9.5 A 31.959 31.959 0 0 1 28.772 7.756 Q 30.56 6.877 32.682 6.06 A 65.276 65.276 0 0 1 35.351 5.1 Q 41.301 3.1 47.601 3.1 Q 53.634 3.1 57.511 5.37 A 12.372 12.372 0 0 1 60.801 8.15 A 18.089 18.089 0 0 1 64.893 18.22 A 23.633 23.633 0 0 1 65.001 20.5 Z M 78.801 6.3 A 0.864 0.864 0 0 0 78.771 6.063 Q 78.667 5.7 78.201 5.7 Q 76.328 5.7 74.623 7.58 A 11.962 11.962 0 0 0 73.501 9.05 Q 71.301 12.4 70.701 16.5 Q 77.254 10.675 78.505 7.599 A 3.502 3.502 0 0 0 78.801 6.3 Z M 56.231 34.918 A 0.434 0.434 0 0 0 56.501 35 A 2.889 2.889 0 0 0 58.007 34.544 Q 58.972 33.96 59.938 32.627 A 13.669 13.669 0 0 0 60.301 32.1 A 16.604 16.604 0 0 0 62.207 28.045 A 21.397 21.397 0 0 0 62.901 25.2 Q 56.001 31.4 56.001 34.2 Q 56.001 34.744 56.231 34.918 Z M 21.201 56.9 A 3.046 3.046 0 0 0 22.995 56.301 Q 23.572 55.891 24.101 55.2 A 8.097 8.097 0 0 0 24.81 54.112 Q 25.138 53.501 25.283 52.918 A 3.776 3.776 0 0 0 25.401 52 A 12.196 12.196 0 0 0 25.382 51.3 Q 25.34 50.574 25.205 50.098 A 2.473 2.473 0 0 0 25.101 49.8 A 23.71 23.71 0 0 0 23.426 51.375 Q 22.583 52.253 21.942 53.131 A 14.105 14.105 0 0 0 21.751 53.4 A 15.697 15.697 0 0 0 21.263 54.142 Q 20.501 55.386 20.501 56.05 A 1.507 1.507 0 0 0 20.531 56.366 Q 20.63 56.826 21.056 56.89 A 0.982 0.982 0 0 0 21.201 56.9 Z" vector-effect="non-scaling-stroke"/></g></svg>