<svg
  width="93.9"
  height="114.503"
  viewBox="0 0 93.9 114.503"
  xmlns="http://www.w3.org/2000/svg"
>
  <g
    id="svgGroup"
    stroke-linecap="round"
    fill-rule="evenodd"
    font-size="9pt"
    stroke="#3A4750"
    stroke-width="0.25mm"
    fill="#bfbcbc"
  >
  <!-- animate neon effect -->
    
    <animate
      attributeName="fill"
      values="#3A4750;"
      dur="4s"
      repeatCount="indefinite"
    />
    <animate
      attributeName="stroke-width"
      values="0.15mm 0.25mm; 0.30mm; 0.25mm 0.15"
      dur="11s"
      repeatCount="indefinite"
    />
      

      <path class="something"
      d="M 28.7 10.802 L 29 10.802 L 12 76.402 C 11.611 77.568 11.411 78.734 11.4 79.717 A 7.628 7.628 0 0 0 11.4 79.802 C 11.4 87.461 19.575 90.948 20.837 91.441 A 6.123 6.123 0 0 0 21 91.502 L 23.9 80.902 A 268.476 268.476 0 0 0 23.971 80.634 C 27.46 67.443 41.148 12.085 54.252 11.115 A 4.709 4.709 0 0 1 54.6 11.102 A 0.896 0.896 0 0 1 55.458 11.682 C 55.627 12.043 55.7 12.562 55.7 13.202 C 55.7 18.352 50.456 32.213 46.58 46.074 A 205.541 205.541 0 0 0 45.6 49.702 L 41 67.502 A 41.63 41.63 0 0 0 40.269 70.719 C 40.034 71.998 39.888 73.205 39.829 74.362 A 22.532 22.532 0 0 0 39.8 75.502 A 19.12 19.12 0 0 0 44.453 87.995 C 45.152 88.864 45.925 89.724 46.771 90.584 A 45.727 45.727 0 0 0 47.7 91.502 L 55.4 61.702 C 61.215 41.856 70.098 15.534 78.981 11.602 A 5.458 5.458 0 0 1 81.2 11.102 A 0.951 0.951 0 0 1 81.976 11.533 C 82.241 11.894 82.4 12.468 82.4 13.202 C 82.2 18.602 76.1 34.802 72 49.702 L 66.2 71.002 A 184.341 184.341 0 0 0 64.126 79.848 C 62.882 85.865 62.21 90.962 62.042 95.28 A 54.584 54.584 0 0 0 62 97.402 C 62 110.002 67.2 114.502 77.4 114.502 C 83.321 114.502 89.608 111.31 90.161 103.357 A 16.641 16.641 0 0 0 90.2 102.202 A 40.576 40.576 0 0 0 90.18 100.661 C 90.167 100.319 90.146 99.971 90.111 99.624 A 10.567 10.567 0 0 0 89.9 98.302 C 88.2 98.602 86.9 98.702 85.5 98.702 A 9.959 9.959 0 0 1 81.77 98.073 C 79.29 97.075 77.771 94.833 77.277 90.961 A 24.279 24.279 0 0 1 77.1 87.902 C 77.1 83.25 78.122 76.974 80.026 68.749 A 339.71 339.71 0 0 1 81.9 61.102 L 85.2 49.702 C 90.656 31.093 93.739 17.229 93.894 9.038 A 33.677 33.677 0 0 0 93.9 8.402 A 22.784 22.784 0 0 0 93.741 5.584 C 93.281 1.916 91.819 0.002 89.3 0.002 A 19.905 19.905 0 0 0 75.368 6.29 C 72.102 9.436 69.172 13.582 66.5 18.302 C 67.2 14.402 67.5 11.002 67.5 8.302 C 67.5 2.902 66 0.002 62.9 0.002 A 19.836 19.836 0 0 0 48.986 6.29 C 46.546 8.65 44.302 11.572 42.224 14.876 A 74.585 74.585 0 0 0 40.2 18.302 L 44.6 1.402 C 40.5 0.802 36.2 0.002 31.8 0.002 C 25.763 0.002 19.648 1.074 13.793 3.821 A 38.733 38.733 0 0 0 11.3 5.102 A 27.616 27.616 0 0 0 7.309 7.828 C 2.607 11.713 0.695 16.275 0.165 20.457 A 21.014 21.014 0 0 0 0 23.102 A 6.771 6.771 0 0 0 3.296 28.778 C 4.381 29.491 5.701 30.025 7.205 30.326 A 14.782 14.782 0 0 0 10.1 30.602 A 15.653 15.653 0 0 0 11.309 30.555 C 11.747 30.521 12.214 30.467 12.71 30.387 A 19.181 19.181 0 0 0 13.7 30.202 A 9.158 9.158 0 0 1 11.947 27.13 C 11.529 25.923 11.3 24.563 11.3 23.102 C 11.3 17.302 15.3 10.502 25.1 10.502 A 11.863 11.863 0 0 1 26.096 10.551 C 26.87 10.617 27.738 10.733 28.7 10.802 Z"
      vector-effect="non-scaling-stroke"
    />
  </g>
</svg>
